<svg id="Ebene_1" data-name="Ebene 1" xmlns="http://www.w3.org/2000/svg" viewBox="0 0 1895.71 432"><defs><style>.cls-1{fill:#fff;}</style></defs><g id="Outline"><path class="cls-1" d="M658.25,558.49l-36-28.75a8,8,0,0,0-10.65.59l-23.6,23.6-28.31,21.23L489.3,554v-2.64l76.76-5.9a39.74,39.74,0,0,0,34.07-25l39.68-99.2,17.29-11.54A18.42,18.42,0,0,0,646.88,376H601.3a8,8,0,0,0-7.59,5.47l-7.63,22.9L533.14,480H453.3a8,8,0,0,0-8,8,7.92,7.92,0,0,0,.84,3.58l27.15,54.31v11.55l-28.53,40L433.3,594V480a32,32,0,0,0-32-32H344.11L324,362.49A23.91,23.91,0,0,0,300.63,344H193.3a8,8,0,0,0-8,8v48a8,8,0,0,0,8,8h8v8a8,8,0,0,0,8,8h16a8,8,0,0,0,5.66-2.34L244.62,408h22l6.24,34.36,15.75-2.87-7.44-40.92A8,8,0,0,0,273.3,392h-24V360h51.33a8,8,0,0,1,7.79,6.18L327.67,448H313.3a32,32,0,0,0-28.74,18,52,52,0,0,0-91.26,34v12a8,8,0,0,0,3.69,6.74l-10.84,21.69a8,8,0,0,0,3.58,10.73l11.57,5.79V568a24,24,0,0,0,24,24h56v7.13L266.89,664H244.62L231,650.33A8,8,0,0,0,225.3,648h-16a8,8,0,0,0-8,8v8h-8a8,8,0,0,0-8,8v48a8,8,0,0,0,8,8h95.42a40,40,0,0,0,38.65-29.69L347,624.51l-15.46-4.12L311.9,694.17A24,24,0,0,1,288.72,712H249.3V680h24a8,8,0,0,0,7.81-6.26L295.72,608H424.15l132.15,35.1a40.29,40.29,0,0,0,9.6,1.16,39.75,39.75,0,0,0,30.27-14L629,592H646.5a18.8,18.8,0,0,0,11.75-33.49ZM222,408H217.3v-8a8,8,0,0,0-8-8h-8V360h32v36.69ZM201.3,680h8a8,8,0,0,0,8-8v-8H222L233.3,675.3V712h-32ZM646.88,392a2.43,2.43,0,0,1,1.35,4.44l-16.6,11.07-27.87-5.57,3.31-9.94ZM537.3,496a8,8,0,0,0,6.56-3.41l53-75.72,25.44,5.09-37,92.58a23.86,23.86,0,0,1-20.44,15l-49.78,3.83L501.46,496Zm-68,0h15.13l14,38.42L486,535.52,466.25,496Zm15.08,73.46,12.25,4.09L478,607.13l-16.94-5ZM249.3,520H270l-11.82,11.83Zm48,43.7a33.43,33.43,0,0,0,4,2l-4,6.43Zm21.44,4.3H385.3v24H303.74Zm-5.44-16a15.84,15.84,0,0,1-6.86-1.57L326.85,496h60.91l20.41,54.43A15.85,15.85,0,0,1,401.3,552Zm75.06-72H326.25l-8-16h78.11Zm28.94,8V529.2L402,488.44l10.1-20.21A15.92,15.92,0,0,1,417.3,480Zm-120-8a16,16,0,0,1,5.18-11.75l10.1,20.21L297.3,529.2Zm-88,20a36,36,0,0,1,72,0h0v4h-72ZM204,540.41,214.25,520H229.3l17.44,23.25-28.5,28.5a8,8,0,0,1-.94-3.75V552a8,8,0,0,0-4.42-7.15ZM236.62,576,263,549.64,281.3,531.3V576ZM401.3,592V568a31.75,31.75,0,0,0,16-4.3V592ZM584,619.84a23.87,23.87,0,0,1-23.93,7.7l-66.17-16.2,18.67-33.61L559,591.65a8,8,0,0,0,7.1-1.27L593.3,570l20.37,15.28ZM646.5,576H628l-22.49-16.86L617.9,546.7,648.25,571a2.81,2.81,0,0,1-1.75,5Z" transform="translate(-185.3 -295.98)"/><rect class="cls-1" x="232" y="64" width="16" height="72"/><rect class="cls-1" x="280" width="16" height="16"/><rect class="cls-1" x="280" y="32" width="16" height="72"/><rect class="cls-1" x="168" y="56" width="16" height="32"/><rect class="cls-1" x="344" y="80" width="16" height="32"/></g><path class="cls-1" d="M793,538.32V485.88q18,0,18-13.77,0-12.6-13.77-12.6T783.31,476.8V607.46H723.84V483q0-19.33,3.88-31.72A63.92,63.92,0,0,1,741,428.16a74.39,74.39,0,0,1,26.37-18.75A81,81,0,0,1,800,402.53q30.47,0,51.2,20.51t20.73,50.83q0,29.44-18.61,47.75-17,16.85-51.27,16.85Z" transform="translate(-185.3 -295.98)"/><path class="cls-1" d="M973.6,552.68v56.69a73.61,73.61,0,0,1-12.31,1.17q-33,0-54.93-21.68t-22-54.35q0-31.78,22.19-53.91t54-22.11q35.45,0,55.88,20.72t20.44,56.62v71.63H982.09V539.78q0-11.56-5.64-18.45t-15.16-6.89a21.52,21.52,0,0,0-21.24,21.24q0,9.09,5.71,15a19.43,19.43,0,0,0,14.51,5.85A24.88,24.88,0,0,0,973.6,552.68Z" transform="translate(-185.3 -295.98)"/><path class="cls-1" d="M1120.37,661.51h-54.78V539.64q0-33.54,17.58-54.64a72,72,0,0,1,25.7-19.34,75.89,75.89,0,0,1,32-7.17q32.67,0,55.08,22t22.41,53.9q0,31.07-22.26,53.62t-52.74,22.56q-5,0-14.65-1V549.16q6.73,5.42,13.48,5.42a19.53,19.53,0,0,0,14.57-6.3,20.76,20.76,0,0,0,6.08-14.94,19.7,19.7,0,0,0-6.3-14.72,21,21,0,0,0-15.08-6.08q-21.1,0-21.1,29.15Z" transform="translate(-185.3 -295.98)"/><path class="cls-1" d="M1306,461.27V607.46H1246.5v-200h76.31q34.88,0,54.06,17.28,21.38,19.35,21.38,49.08,0,30.31-26.51,51.12L1406,607.46h-62.4L1314.76,543V491.59h4.69q18.73,0,18.75-16.11,0-14.21-21.68-14.21Z" transform="translate(-185.3 -295.98)"/><path class="cls-1" d="M1565.39,543.3h-83.05a38.31,38.31,0,0,1,.73-25.93h27.83q-2.93-16.26-18.31-16.26-10.26,0-16.7,8.72t-6.44,22.34q0,14.21,6.22,23T1492,564q8.2,0,15.82-8.21l31.21,37.5q-21.84,17.14-48.49,17.14-32.52,0-54.64-21.83t-22.12-54q0-32.08,22.34-54.2T1491,458.19q31.79,0,53.39,21.61T1566,533.05C1566,535.2,1565.78,538.61,1565.39,543.3Z" transform="translate(-185.3 -295.98)"/><path class="cls-1" d="M1642.88,461.42v146H1588.1v-146Zm-27.24-65.19a26.8,26.8,0,0,1,19.26,7.84A24.89,24.89,0,0,1,1643,422.6q0,11.41-7.69,18.75t-19.7,7.32q-12,0-19.71-7.32t-7.69-18.75a24.89,24.89,0,0,1,8.13-18.53A26.8,26.8,0,0,1,1615.64,396.23Z" transform="translate(-185.3 -295.98)"/><path class="cls-1" d="M1766.66,463.47v57.71q-11.57,0-15.89,4.32t-5.49,17.07q-3.83,42.33-32.82,59.76-15.37,9.09-43.65,9.09h-7.62v-58h2.49q13.18,0,18.83-5.5t6.52-19.26q1.17-22.41,4.17-31.49t12.23-18q16.11-15.67,44.68-15.67Z" transform="translate(-185.3 -295.98)"/><path class="cls-1" d="M1928.09,543.3H1845a40.23,40.23,0,0,1-1.9-11.57,40.79,40.79,0,0,1,2.63-14.36h27.84q-2.94-16.26-18.31-16.26-10.26,0-16.7,8.72t-6.45,22.34q0,14.21,6.23,23T1854.7,564q8.21,0,15.82-8.21l31.2,37.5q-21.83,17.14-48.49,17.14-32.52,0-54.63-21.83t-22.12-54q0-32.08,22.34-54.2t54.85-22.12q31.78,0,53.4,21.61t21.6,53.25C1928.67,535.2,1928.48,538.61,1928.09,543.3Z" transform="translate(-185.3 -295.98)"/><path class="cls-1" d="M2081,607.46h-54.79V525q0-12.6-10.4-12.6-10.24,0-10.25,12.6v82.47h-54.79V526q0-28.57,18.9-48.12T2016,458.34q31.35,0,50.24,22.7,14.79,17.73,14.8,49.37Z" transform="translate(-185.3 -295.98)"/></svg>